<mxfile host="app.diagrams.net" agent="Mozilla/5.0 (Windows NT 10.0; Win64; x64) AppleWebKit/537.36 (KHTML, like Gecko) Chrome/130.0.0.0 Safari/537.36" version="24.8.4">
  <diagram name="Page-1" id="ur8U7wuqoTvOziJ64ZFf">
    <mxGraphModel>
      <root>
        <mxCell id="0" />
        <mxCell id="1" parent="0" />
        <mxCell id="2" value="Event Management System Database" style="whiteSpace=wrap;strokeWidth=2;verticalAlign=top;" vertex="1" parent="1">
          <mxGeometry x="8" y="8" width="1098" height="2897" as="geometry" />
        </mxCell>
        <mxCell id="3" value="Relationships" style="whiteSpace=wrap;strokeWidth=2;" vertex="1" parent="2">
          <mxGeometry x="372" y="2826" width="126" height="34" as="geometry" />
        </mxCell>
        <mxCell id="4" value="Scenario Overview" style="rhombus;strokeWidth=2;whiteSpace=wrap;" vertex="1" parent="2">
          <mxGeometry x="377" y="46" width="182" height="182" as="geometry" />
        </mxCell>
        <mxCell id="5" value="Design Database Schema" style="whiteSpace=wrap;strokeWidth=2;" vertex="1" parent="2">
          <mxGeometry x="350" y="360" width="236" height="48" as="geometry" />
        </mxCell>
        <mxCell id="6" value="AnalyzeData" style="whiteSpace=wrap;strokeWidth=2;" vertex="1" parent="2">
          <mxGeometry x="393" y="523" width="149" height="48" as="geometry" />
        </mxCell>
        <mxCell id="7" value="IdentifyEntities" style="whiteSpace=wrap;strokeWidth=2;" vertex="1" parent="2">
          <mxGeometry x="383" y="704" width="170" height="48" as="geometry" />
        </mxCell>
        <mxCell id="8" value="DefineAttributes" style="whiteSpace=wrap;strokeWidth=2;" vertex="1" parent="2">
          <mxGeometry x="379" y="885" width="179" height="48" as="geometry" />
        </mxCell>
        <mxCell id="9" value="Event" style="ellipse;aspect=fixed;strokeWidth=2;whiteSpace=wrap;" vertex="1" parent="2">
          <mxGeometry x="440" y="1104" width="55" height="55" as="geometry" />
        </mxCell>
        <mxCell id="10" value="Venue" style="ellipse;aspect=fixed;strokeWidth=2;whiteSpace=wrap;" vertex="1" parent="2">
          <mxGeometry x="152" y="1287" width="59" height="59" as="geometry" />
        </mxCell>
        <mxCell id="11" value="Organizer" style="ellipse;aspect=fixed;strokeWidth=2;whiteSpace=wrap;" vertex="1" parent="2">
          <mxGeometry x="359" y="1274" width="85" height="85" as="geometry" />
        </mxCell>
        <mxCell id="12" value="Attendee" style="ellipse;aspect=fixed;strokeWidth=2;whiteSpace=wrap;" vertex="1" parent="2">
          <mxGeometry x="642" y="1276" width="82" height="82" as="geometry" />
        </mxCell>
        <mxCell id="13" value="DefineRelationships" style="whiteSpace=wrap;strokeWidth=2;" vertex="1" parent="2">
          <mxGeometry x="868" y="1107" width="200" height="48" as="geometry" />
        </mxCell>
        <mxCell id="14" value="EstablishConstraints" style="whiteSpace=wrap;strokeWidth=2;" vertex="1" parent="2">
          <mxGeometry x="866" y="1292" width="204" height="48" as="geometry" />
        </mxCell>
        <mxCell id="15" value="Constraints" style="whiteSpace=wrap;strokeWidth=2;" vertex="1" parent="2">
          <mxGeometry x="898" y="1512" width="140" height="48" as="geometry" />
        </mxCell>
        <mxCell id="16" value="IntegrityConsistency" style="whiteSpace=wrap;strokeWidth=2;" vertex="1" parent="2">
          <mxGeometry x="865" y="1675" width="206" height="48" as="geometry" />
        </mxCell>
        <mxCell id="17" value="Normalization" style="whiteSpace=wrap;strokeWidth=2;" vertex="1" parent="2">
          <mxGeometry x="888" y="1838" width="160" height="48" as="geometry" />
        </mxCell>
        <mxCell id="18" value="ReduceRedundancy" style="whiteSpace=wrap;strokeWidth=2;" vertex="1" parent="2">
          <mxGeometry x="869" y="2002" width="198" height="48" as="geometry" />
        </mxCell>
        <mxCell id="19" value="EfficiencyScalability" style="whiteSpace=wrap;strokeWidth=2;" vertex="1" parent="2">
          <mxGeometry x="865" y="2165" width="206" height="48" as="geometry" />
        </mxCell>
        <mxCell id="20" value="OptimizeQueries" style="whiteSpace=wrap;strokeWidth=2;" vertex="1" parent="2">
          <mxGeometry x="879" y="2329" width="179" height="48" as="geometry" />
        </mxCell>
        <mxCell id="21" value="IndexColumns" style="whiteSpace=wrap;strokeWidth=2;" vertex="1" parent="2">
          <mxGeometry x="889" y="2492" width="159" height="48" as="geometry" />
        </mxCell>
        <mxCell id="22" value="IndexStrategy" style="whiteSpace=wrap;strokeWidth=2;" vertex="1" parent="2">
          <mxGeometry x="888" y="2655" width="159" height="48" as="geometry" />
        </mxCell>
        <mxCell id="23" value="AnalyzeOptimize" style="whiteSpace=wrap;strokeWidth=2;" vertex="1" parent="2">
          <mxGeometry x="877" y="2819" width="181" height="48" as="geometry" />
        </mxCell>
        <mxCell id="24" value="Attributes" style="whiteSpace=wrap;strokeWidth=2;" vertex="1" parent="2">
          <mxGeometry x="28" y="1066" width="803" height="331" as="geometry" />
        </mxCell>
        <mxCell id="25" value="Objective: Design the database schema for Event Management System" style="curved=1;startArrow=none;endArrow=block;exitX=0.5;exitY=0.99;entryX=0.5;entryY=-0.01;" edge="1" parent="2" source="4" target="5">
          <mxGeometry relative="1" as="geometry">
            <Array as="points" />
          </mxGeometry>
        </mxCell>
        <mxCell id="26" value="Consider user requirements and data relationships" style="curved=1;startArrow=none;endArrow=block;exitX=0.5;exitY=1;entryX=0.5;entryY=0;" edge="1" parent="2" source="5" target="6">
          <mxGeometry relative="1" as="geometry">
            <Array as="points" />
          </mxGeometry>
        </mxCell>
        <mxCell id="27" value="Identify main entities: Event, Venue, Organizer, Attendee" style="curved=1;startArrow=none;endArrow=block;exitX=0.5;exitY=1.01;entryX=0.5;entryY=0;" edge="1" parent="2" source="6" target="7">
          <mxGeometry relative="1" as="geometry">
            <Array as="points" />
          </mxGeometry>
        </mxCell>
        <mxCell id="28" value="Define attributes and relationships for each entity" style="curved=1;startArrow=none;endArrow=block;exitX=0.5;exitY=1.01;entryX=0.5;entryY=0;" edge="1" parent="2" source="7" target="8">
          <mxGeometry relative="1" as="geometry">
            <Array as="points" />
          </mxGeometry>
        </mxCell>
        <mxCell id="29" value="Event entity - name, date, time, description, organizer ID" style="curved=1;startArrow=none;endArrow=block;exitX=0.5;exitY=1.01;entryX=0.51;entryY=-0.01;" edge="1" parent="2" source="8" target="9">
          <mxGeometry relative="1" as="geometry">
            <Array as="points" />
          </mxGeometry>
        </mxCell>
        <mxCell id="30" value="Venue entity - name, location, capacity" style="curved=1;startArrow=none;endArrow=block;exitX=0;exitY=1;entryX=0.22;entryY=0;" edge="1" parent="2" source="8" target="10">
          <mxGeometry relative="1" as="geometry">
            <Array as="points">
              <mxPoint x="126" y="1000" />
              <mxPoint x="126" y="1216" />
            </Array>
          </mxGeometry>
        </mxCell>
        <mxCell id="31" value="Organizer entity - name, email, phone" style="curved=1;startArrow=none;endArrow=block;exitX=0.27;exitY=1.01;entryX=0.07;entryY=0;" edge="1" parent="2" source="8" target="11">
          <mxGeometry relative="1" as="geometry">
            <Array as="points">
              <mxPoint x="315" y="1000" />
              <mxPoint x="315" y="1216" />
            </Array>
          </mxGeometry>
        </mxCell>
        <mxCell id="32" value="Attendee entity - name, email, phone" style="curved=1;startArrow=none;endArrow=block;exitX=0.72;exitY=1.01;entryX=0.19;entryY=-0.01;" edge="1" parent="2" source="8" target="12">
          <mxGeometry relative="1" as="geometry">
            <Array as="points">
              <mxPoint x="620" y="1000" />
              <mxPoint x="620" y="1216" />
            </Array>
          </mxGeometry>
        </mxCell>
        <mxCell id="33" value="One-to-One: Venue" style="curved=1;startArrow=none;endArrow=block;exitX=0.01;exitY=0.67;entryX=0.69;entryY=0;" edge="1" parent="2" source="9" target="10">
          <mxGeometry relative="1" as="geometry">
            <Array as="points">
              <mxPoint x="220" y="1216" />
            </Array>
          </mxGeometry>
        </mxCell>
        <mxCell id="34" value="One-to-Many: Attendee" style="curved=1;startArrow=none;endArrow=block;exitX=1.01;exitY=0.66;entryX=0.71;entryY=-0.01;" edge="1" parent="2" source="9" target="12">
          <mxGeometry relative="1" as="geometry">
            <Array as="points">
              <mxPoint x="726" y="1216" />
            </Array>
          </mxGeometry>
        </mxCell>
        <mxCell id="35" value="Many-to-One: Organizer" style="curved=1;startArrow=none;endArrow=block;exitX=0.51;exitY=1;entryX=0.83;entryY=0;" edge="1" parent="2" source="9" target="11">
          <mxGeometry relative="1" as="geometry">
            <Array as="points">
              <mxPoint x="468" y="1216" />
            </Array>
          </mxGeometry>
        </mxCell>
        <mxCell id="36" value="Define relationships between entities" style="curved=1;startArrow=none;endArrow=block;exitX=1;exitY=0.84;entryX=0.5;entryY=0;" edge="1" parent="2" source="8" target="13">
          <mxGeometry relative="1" as="geometry">
            <Array as="points">
              <mxPoint x="968" y="1000" />
            </Array>
          </mxGeometry>
        </mxCell>
        <mxCell id="37" value="Establish foreign key constraints" style="curved=1;startArrow=none;endArrow=block;exitX=0.5;exitY=1.01;entryX=0.5;entryY=0.01;" edge="1" parent="2" source="13" target="14">
          <mxGeometry relative="1" as="geometry">
            <Array as="points" />
          </mxGeometry>
        </mxCell>
        <mxCell id="38" value="Event - Venue ID, Organizer ID | Attendee - Event ID" style="curved=1;startArrow=none;endArrow=block;exitX=0.5;exitY=1.01;entryX=0.5;entryY=-0.01;" edge="1" parent="2" source="14" target="15">
          <mxGeometry relative="1" as="geometry">
            <Array as="points" />
          </mxGeometry>
        </mxCell>
        <mxCell id="39" value="Ensure data integrity and consistency" style="curved=1;startArrow=none;endArrow=block;exitX=0.5;exitY=1;entryX=0.5;entryY=0;" edge="1" parent="2" source="15" target="16">
          <mxGeometry relative="1" as="geometry">
            <Array as="points" />
          </mxGeometry>
        </mxCell>
        <mxCell id="40" value="Implement normalization techniques" style="curved=1;startArrow=none;endArrow=block;exitX=0.5;exitY=1.01;entryX=0.5;entryY=0.01;" edge="1" parent="2" source="16" target="17">
          <mxGeometry relative="1" as="geometry">
            <Array as="points" />
          </mxGeometry>
        </mxCell>
        <mxCell id="41" value="Break down data to reduce redundancy" style="curved=1;startArrow=none;endArrow=block;exitX=0.5;exitY=1.02;entryX=0.5;entryY=0;" edge="1" parent="2" source="17" target="18">
          <mxGeometry relative="1" as="geometry">
            <Array as="points" />
          </mxGeometry>
        </mxCell>
        <mxCell id="42" value="Maintain database efficiency and scalability" style="curved=1;startArrow=none;endArrow=block;exitX=0.5;exitY=1;entryX=0.5;entryY=0;" edge="1" parent="2" source="18" target="19">
          <mxGeometry relative="1" as="geometry">
            <Array as="points" />
          </mxGeometry>
        </mxCell>
        <mxCell id="43" value="Optimize queries for performance" style="curved=1;startArrow=none;endArrow=block;exitX=0.5;exitY=1.01;entryX=0.5;entryY=-0.01;" edge="1" parent="2" source="19" target="20">
          <mxGeometry relative="1" as="geometry">
            <Array as="points" />
          </mxGeometry>
        </mxCell>
        <mxCell id="44" value="Index key columns for faster retrieval" style="curved=1;startArrow=none;endArrow=block;exitX=0.5;exitY=1;entryX=0.5;entryY=0;" edge="1" parent="2" source="20" target="21">
          <mxGeometry relative="1" as="geometry">
            <Array as="points" />
          </mxGeometry>
        </mxCell>
        <mxCell id="45" value="Implement proper indexing strategy" style="curved=1;startArrow=none;endArrow=block;exitX=0.5;exitY=1.01;entryX=0.5;entryY=0.01;" edge="1" parent="2" source="21" target="22">
          <mxGeometry relative="1" as="geometry">
            <Array as="points" />
          </mxGeometry>
        </mxCell>
        <mxCell id="46" value="Regularly analyze and optimize indexing" style="curved=1;startArrow=none;endArrow=block;exitX=0.5;exitY=1.02;entryX=0.5;entryY=0;" edge="1" parent="2" source="22" target="23">
          <mxGeometry relative="1" as="geometry">
            <Array as="points" />
          </mxGeometry>
        </mxCell>
      </root>
    </mxGraphModel>
  </diagram>
</mxfile>
